# xmcd
#
# Track frame offsets: 
#        150
#        20105
#        40820
#        65030
#
# Disc length: 1084 seconds
#
# Revision: 2
# Processed by: cddbd v1.5.2PL0 Copyright (c) Steve Scherf et al.
# Submitted via: ExactAudioCopy v0.99pb4
#
DISCID=34043a04
DTITLE=LISA STANSFIELD - He Touches Me [CDM)
DYEAR=2005
DGENRE=Pop
TTITLE0=He Touches Me (Radio Edit)
TTITLE1=He Touches Me (Album Version)
TTITLE2=The Moment (Radio Edit)
TTITLE3=Takes A Woman To Know
EXTD=
EXTT0=
EXTT1=
EXTT2=
EXTT3=
PLAYORDER=
